<svg xmlns="http://www.w3.org/2000/svg" viewBox="0 0 250 250"><defs><style>.cls-1,.cls-2{fill:#fff;}.cls-2{stroke:#fff;stroke-miterlimit:10;stroke-width:12px;}</style></defs><title>Ресурс 17</title><g id="Слой_2" data-name="Слой 2"><g id="Слой_1-2" data-name="Слой 1"><path class="cls-1" d="M46.4,151.41A71.86,71.86,0,0,1,26.22,149a99.12,99.12,0,0,1-15.64-6V124.75h1a52.28,52.28,0,0,0,16.26,10.43,46.22,46.22,0,0,0,17.5,3.7q12,0,18.17-5a16.22,16.22,0,0,0,6.15-13.22A16.7,16.7,0,0,0,66.46,110q-3.21-4.09-10.25-6.07c-3.37-1-6.44-1.79-9.23-2.42S40.71,100,36.51,99A49.92,49.92,0,0,1,26.4,95.23a28.5,28.5,0,0,1-7.91-5.93,25.74,25.74,0,0,1-5.24-8.46,31.44,31.44,0,0,1-1.86-11.25q0-13.25,10.32-22.22t26.37-9A79,79,0,0,1,65.4,40.22a70.22,70.22,0,0,1,15.13,5.2V62.78h-1.1A48.24,48.24,0,0,0,66.1,54.47,42.15,42.15,0,0,0,49,50.92q-10.11,0-16.33,4.72a14.86,14.86,0,0,0-6.23,12.42q0,7,3.67,11.06t10.62,6q4.6,1.25,11.28,2.82T63.1,90.83q11.26,3.45,16.48,10.41t5.2,17.13a32.49,32.49,0,0,1-2.6,12.6,29.86,29.86,0,0,1-7.29,10.55A38.37,38.37,0,0,1,63,148.84Q56.36,151.41,46.4,151.41Z"/><path class="cls-1" d="M138.56,149.43v-23c0-1.83-.08-3.52-.22-5.08a10.18,10.18,0,0,0-.89-3.65,4.59,4.59,0,0,0-2-2.1,7.77,7.77,0,0,0-3.57-.68,9.52,9.52,0,0,0-4.43,1.26,23.4,23.4,0,0,0-4.9,3.66c0,.4,0,.88.08,1.44s.06,1.22.06,2v26.2H116v-23c0-1.83-.07-3.52-.22-5.08a10.18,10.18,0,0,0-.89-3.65,4.55,4.55,0,0,0-2-2.1,7.75,7.75,0,0,0-3.56-.68,9.34,9.34,0,0,0-4.57,1.35,25,25,0,0,0-4.63,3.46v29.73h-6.7V109.61h6.7V114a24.5,24.5,0,0,1,5.22-4.08,11.49,11.49,0,0,1,5.69-1.44,12.09,12.09,0,0,1,6.25,1.6,10.1,10.1,0,0,1,4.16,5.28,26.45,26.45,0,0,1,5.91-5.13,11.88,11.88,0,0,1,6.28-1.75,13.15,13.15,0,0,1,4.67.8,9.39,9.39,0,0,1,3.67,2.58,12.65,12.65,0,0,1,2.47,4.53,22.3,22.3,0,0,1,.88,6.81v26.2Z"/><path class="cls-1" d="M176.91,145.19c-.55.4-1.28,1-2.19,1.69a16,16,0,0,1-2.66,1.73,19.45,19.45,0,0,1-3.44,1.42,16.56,16.56,0,0,1-4.65.5,12.08,12.08,0,0,1-4.67-.92,12,12,0,0,1-3.88-2.61,12.11,12.11,0,0,1-2.57-4,13.61,13.61,0,0,1-1-5.08,13.46,13.46,0,0,1,1.74-7,11.94,11.94,0,0,1,5.53-4.62,27.39,27.39,0,0,1,7.91-2.12q4.56-.59,9.84-.87V122a8.7,8.7,0,0,0-.71-3.8,5.35,5.35,0,0,0-2-2.23,7.83,7.83,0,0,0-3.14-1.08,26.29,26.29,0,0,0-3.81-.27,25.79,25.79,0,0,0-5.45.69,36.94,36.94,0,0,0-6.28,2h-.39v-6.81q1.86-.54,5.31-1.18a37.33,37.33,0,0,1,6.85-.64,31.55,31.55,0,0,1,6.91.64,13.29,13.29,0,0,1,5.06,2.32,9.9,9.9,0,0,1,3.24,4.24,16.59,16.59,0,0,1,1.08,6.35v27.23h-6.67Zm0-5.56v-11c-1.59.14-3.61.33-6,.58a31.8,31.8,0,0,0-5.9,1.06,10.65,10.65,0,0,0-4.42,2.51,6.25,6.25,0,0,0-1.75,4.72,6.61,6.61,0,0,0,1.93,5.17,8.13,8.13,0,0,0,5.63,1.75A11.94,11.94,0,0,0,172.1,143,24.79,24.79,0,0,0,176.91,139.63Z"/><path class="cls-1" d="M214.09,116.81h-.36a7.34,7.34,0,0,0-1.59-.26q-.82-.06-2-.06a13.3,13.3,0,0,0-5.38,1.18,17.29,17.29,0,0,0-5.06,3.49v28.27H193V109.61h6.7v5.92a30.66,30.66,0,0,1,6.39-4.58,12.05,12.05,0,0,1,5.3-1.34,14.7,14.7,0,0,1,1.55.06c.34,0,.73.09,1.16.16Z"/><path class="cls-1" d="M235.34,150.21q-5.49,0-8.56-3.12t-3.06-9.85V115.17h-4.53v-5.56h4.53V98.17h6.7v11.44h12.33v5.56H230.42V134.1c0,2,0,3.58.11,4.67a7.87,7.87,0,0,0,.82,3.07,3.89,3.89,0,0,0,2,1.87,9,9,0,0,0,3.67.62,10.54,10.54,0,0,0,3.17-.48,19.67,19.67,0,0,0,2.21-.8h.39v6a31.53,31.53,0,0,1-3.83.84A23.65,23.65,0,0,1,235.34,150.21Z"/><path class="cls-1" d="M136.08,200.86h-4.49V185.65a30.84,30.84,0,0,0-.18-3.44,7.32,7.32,0,0,0-.68-2.54,3.54,3.54,0,0,0-1.54-1.5,6,6,0,0,0-2.68-.49,7.65,7.65,0,0,0-3.45.9,17.63,17.63,0,0,0-3.48,2.33v20h-4.5V163.64h4.5v13.47a17.64,17.64,0,0,1,4-2.76,9.44,9.44,0,0,1,4.14-.95,7.69,7.69,0,0,1,6.17,2.59q2.22,2.59,2.22,7.53Z"/><path class="cls-1" d="M164.39,187.51q0,6.75-3.25,10.42a11,11,0,0,1-8.67,3.68,10.83,10.83,0,0,1-8.76-3.8q-3.19-3.78-3.2-10.3,0-6.69,3.29-10.4a12,12,0,0,1,17.34,0Q164.38,180.8,164.39,187.51Zm-4.64,0q0-5.19-1.89-7.71a7,7,0,0,0-10.81,0c-1.26,1.68-1.9,4.25-1.9,7.71s.64,5.89,1.9,7.62a6.95,6.95,0,0,0,10.8.05C159.11,193.48,159.75,190.93,159.75,187.51Z"/><path class="cls-1" d="M189.82,200.86h-4.5v-3a19.52,19.52,0,0,1-3.94,2.76,9.11,9.11,0,0,1-4.17,1,9.22,9.22,0,0,1-3.29-.58,6.88,6.88,0,0,1-2.69-1.82,8.59,8.59,0,0,1-1.78-3.13,14.62,14.62,0,0,1-.63-4.59V174.14h4.49v15.22a33.89,33.89,0,0,0,.16,3.53,7,7,0,0,0,.7,2.45,3.45,3.45,0,0,0,1.5,1.5,6.16,6.16,0,0,0,2.72.48,7.88,7.88,0,0,0,3.51-.93,15.65,15.65,0,0,0,3.42-2.3v-20h4.5Z"/><path class="cls-1" d="M203.56,201.51a17,17,0,0,1-5-.72,22.77,22.77,0,0,1-3.86-1.53v-5h.24c.38.31.83.64,1.35,1a13.35,13.35,0,0,0,2.07,1.15,19.48,19.48,0,0,0,2.52.93,10.09,10.09,0,0,0,2.86.41,12,12,0,0,0,2.3-.25,5.55,5.55,0,0,0,1.82-.64,3.88,3.88,0,0,0,1.21-1.17,3.83,3.83,0,0,0,.37-1.87,3.1,3.1,0,0,0-.88-2.41,7.1,7.1,0,0,0-3.09-1.37c-.58-.14-1.33-.31-2.25-.5s-1.78-.4-2.56-.62a8.16,8.16,0,0,1-4.45-2.74,7.8,7.8,0,0,1,1.34-10.37,10.91,10.91,0,0,1,7.25-2.28,19.12,19.12,0,0,1,4.47.55,15.7,15.7,0,0,1,3.78,1.39v4.81h-.24a13.9,13.9,0,0,0-3.84-2.15,12,12,0,0,0-4.27-.79,7.13,7.13,0,0,0-3.76.93,3.08,3.08,0,0,0-1.53,2.82,3.23,3.23,0,0,0,.91,2.5,7.16,7.16,0,0,0,2.92,1.36c.67.17,1.42.34,2.24.51s1.68.36,2.59.59a8.41,8.41,0,0,1,4.47,2.46,6.94,6.94,0,0,1,1.49,4.69,8.08,8.08,0,0,1-.68,3.27,7.08,7.08,0,0,1-2,2.64,10.23,10.23,0,0,1-3.24,1.82A14.27,14.27,0,0,1,203.56,201.51Z"/><path class="cls-1" d="M229.8,201.49q-6.39,0-9.92-3.6t-3.52-10.23q0-6.54,3.42-10.4a11.39,11.39,0,0,1,8.95-3.86,12.49,12.49,0,0,1,4.4.72,8.72,8.72,0,0,1,3.35,2.24,10.48,10.48,0,0,1,2.2,3.75,16.7,16.7,0,0,1,.76,5.42V188H220.93q0,4.67,2.34,7.13a8.53,8.53,0,0,0,6.48,2.46,12.86,12.86,0,0,0,2.91-.33,14.07,14.07,0,0,0,2.57-.86,19.16,19.16,0,0,0,2.06-1.07,11.33,11.33,0,0,0,1.39-1h.26v4.91l-2,.77a20.14,20.14,0,0,1-2.11.74c-.87.23-1.67.42-2.38.55A16.4,16.4,0,0,1,229.8,201.49Zm5.27-17a13.14,13.14,0,0,0-.43-3.13,6.57,6.57,0,0,0-1.11-2.23,5,5,0,0,0-2-1.53,7.8,7.8,0,0,0-3-.52,7.93,7.93,0,0,0-3.05.53,7.27,7.27,0,0,0-2.28,1.57,7.47,7.47,0,0,0-1.53,2.33,10,10,0,0,0-.67,3Z"/><line class="cls-2" x1="10.58" y1="195.86" x2="100.75" y2="195.86"/><path class="cls-1" d="M238,12V238H12V12H238M250,0H0V250H250V0Z"/></g></g></svg>